# xmcd CD database file
#
# Track frame offsets:
#	150
#	17416
#	35706
#	73906
#	91270
#	131772
#	155748
#	163584
#	187346
#	203793
#	207151
#	232594
#	235883
#	273370
#
# Disc length: 3735 seconds
#
# Revision: 3
# Processed by: cddbd v1.5.1PL0 Copyright (c) Steve Scherf et al.
# Submitted via: CDex 1.50
#
DISCID=c30e950e
DTITLE=Kurt Elling - Live in Chicago
DYEAR=2000
DGENRE=Jazz
TTITLE0=Downtown
TTITLE1=My foolish heart
TTITLE2=Smoke gets in your eyes
TTITLE3=Oh my god
TTITLE4=Night Dream
TTITLE5=(I love you) For sentimental reasons
TTITLE6=Intro - (esperanto)
TTITLE7=Esperanto
TTITLE8=Don't Get scared
TTITLE9=Intro - (goin' to Chicago)
TTITLE10=Goin' to Chicago)
TTITLE11=Intro - (The Rent Party)
TTITLE12=The Rent Party
TTITLE13=Blues Chaser
EXTD=YEAR: 2000
EXTT0=
EXTT1=
EXTT2=
EXTT3=
EXTT4=
EXTT5=
EXTT6=
EXTT7=
EXTT8=
EXTT9=
EXTT10=
EXTT11=
EXTT12=
EXTT13=
PLAYORDER=
